<?xml version="1.0" encoding="utf-8"?>
<!-- Generator: Adobe Illustrator 18.1.1, SVG Export Plug-In . SVG Version: 6.00 Build 0)  -->
<!DOCTYPE svg PUBLIC "-//W3C//DTD SVG 1.1//EN" "http://www.w3.org/Graphics/SVG/1.1/DTD/svg11.dtd">
<svg version="1.1" id="Layer_1" xmlns="http://www.w3.org/2000/svg" xmlns:xlink="http://www.w3.org/1999/xlink" x="0px" y="0px"
	 viewBox="0 0 916.2 870.7" enable-background="new 0 0 916.2 870.7" xml:space="preserve">
<path fill="#FAAE1B" stroke="#FAAE1B" stroke-miterlimit="10" d="M820.1,870.2H96c-52.8,0-95.5-42.8-95.5-95.5V96
	C0.5,43.3,43.3,0.5,96,0.5h724.1c52.8,0,95.5,42.8,95.5,95.5v678.6C915.7,827.4,872.9,870.2,820.1,870.2z"/>
<ellipse fill="none" stroke="#010101" stroke-width="33" stroke-miterlimit="10" cx="458.1" cy="262.8" rx="128" ry="198"/>
<ellipse transform="matrix(-0.9063 -0.4226 0.4226 -0.9063 1087.5228 1094.6555)" fill="#FAAE1B" stroke="#010101" stroke-width="33" stroke-miterlimit="10" cx="665.1" cy="426.8" rx="128" ry="198"/>
<ellipse transform="matrix(-0.9063 0.4226 -0.4226 -0.9063 658.2338 707.2942)" fill="#FAAE1B" stroke="#010101" stroke-width="33" stroke-miterlimit="10" cx="250.7" cy="426.6" rx="128" ry="198"/>
<polygon fill="#010101" stroke="#010101" stroke-width="11" stroke-miterlimit="10" points="337,649.7 338.4,604 387.3,621.7 "/>
<polygon fill="#010101" stroke="#010101" stroke-width="11" stroke-miterlimit="10" points="432.1,503.4 458.1,458.4 484.1,503.4 
	"/>
<polygon fill="#010101" stroke="#010101" stroke-width="11" stroke-miterlimit="10" points="535,634.5 577.5,604.7 582.1,656.5 "/>
<path fill="#673090" stroke="#010101" stroke-width="6" stroke-miterlimit="10" d="M564.5,679.7"/>
<path fill="none" stroke="#010101" stroke-width="22" stroke-miterlimit="10" d="M567.9,610.3"/>
<line fill="none" stroke="#010101" stroke-width="36.3097" stroke-miterlimit="10" x1="456.3" y1="460.8" x2="458.1" y2="851.9"/>
<line fill="none" stroke="#010101" stroke-width="33" stroke-miterlimit="10" x1="581.1" y1="610.3" x2="397.3" y2="835.9"/>
<line fill="none" stroke="#010101" stroke-width="33" stroke-miterlimit="10" x1="360.6" y1="638.7" x2="522.1" y2="835.9"/>
</svg>
