<?xml version="1.0" encoding="utf-8"?>
<!-- Generator: Adobe Illustrator 18.1.1, SVG Export Plug-In . SVG Version: 6.00 Build 0)  -->
<!DOCTYPE svg PUBLIC "-//W3C//DTD SVG 1.1//EN" "http://www.w3.org/Graphics/SVG/1.1/DTD/svg11.dtd">
<svg version="1.1" id="Layer_1" xmlns="http://www.w3.org/2000/svg" xmlns:xlink="http://www.w3.org/1999/xlink" x="0px" y="0px"
	 viewBox="0 0 916.2 870.7" enable-background="new 0 0 916.2 870.7" xml:space="preserve">
<path fill="#FAAE1B" stroke="#FAAE1B" stroke-miterlimit="10" d="M820.1,0.5c52.8,0,95.5,42.8,95.5,95.5v678.6
	c0,52.8-42.8,95.5-95.5,95.5H96c-52.8,0-95.5-42.8-95.5-95.5V96C0.5,43.3,43.3,0.5,96,0.5"/>
<path fill="#673090" stroke="#010101" stroke-width="8.7991" stroke-miterlimit="10" d="M607.9,656.7"/>
<path fill="none" stroke="#010101" stroke-width="32.2635" stroke-miterlimit="10" d="M612.9,555"/>
<polygon fill="#FAAE1B" stroke="#010101" stroke-width="33" stroke-miterlimit="10" points="56.6,743.6 158.2,567.7 259.8,743.6 "/>
<circle fill="#FAAE1B" stroke="#010101" stroke-width="33" stroke-miterlimit="10" cx="745.1" cy="234.2" r="64.2"/>
<polygon fill="#FAAE1B" stroke="#010101" stroke-width="33" stroke-miterlimit="10" points="553.3,298.4 451.8,474.3 350.2,298.4 
	"/>
<polygon fill="#FAAE1B" stroke="#010101" stroke-width="33" stroke-miterlimit="10" points="643.8,743.6 745.3,567.7 846.9,743.6 
	"/>
<polygon fill="none" stroke="#010101" stroke-width="33" stroke-miterlimit="10" points="222,394.2 158.5,504.2 95,394.2 "/>
<polygon fill="none" stroke="#010101" stroke-width="33" stroke-miterlimit="10" points="808.6,394.2 745.1,504.2 681.6,394.2 "/>
<polygon fill="none" stroke="#010101" stroke-width="33" stroke-miterlimit="10" points="387.6,643.8 451.1,533.8 514.6,643.8 "/>
<circle fill="#FAAE1B" stroke="#010101" stroke-width="33" stroke-miterlimit="10" cx="158.5" cy="234.2" r="64.2"/>
<circle fill="#FAAE1B" stroke="#010101" stroke-width="33" stroke-miterlimit="10" cx="455.2" cy="125.9" r="64.2"/>
</svg>
