<?xml version="1.0" encoding="utf-8"?>
<!-- Generator: Adobe Illustrator 18.1.1, SVG Export Plug-In . SVG Version: 6.00 Build 0)  -->
<!DOCTYPE svg PUBLIC "-//W3C//DTD SVG 1.1//EN" "http://www.w3.org/Graphics/SVG/1.1/DTD/svg11.dtd">
<svg version="1.1" id="Layer_1" xmlns="http://www.w3.org/2000/svg" xmlns:xlink="http://www.w3.org/1999/xlink" x="0px" y="0px"
	 viewBox="0 0 915.2 869.7" enable-background="new 0 0 915.2 869.7" xml:space="preserve">
<path fill="#FAAE1B" d="M819.6,869.7H95.5C42.8,869.7,0,827,0,774.2V95.6C0,42.8,42.8,0,95.5,0h724.1c52.8,0,95.5,42.8,95.5,95.5
	v678.6C915.2,827,872.4,869.7,819.6,869.7z"/>
<path fill="#673090" stroke="#010101" stroke-width="6" stroke-miterlimit="10" d="M564,605.2"/>
<line fill="#FFFFFF" stroke="#010101" stroke-width="36.1141" stroke-miterlimit="10" x1="351.3" y1="0" x2="353.6" y2="864.7"/>
<line fill="#FFFFFF" stroke="#010101" stroke-width="36.0479" stroke-miterlimit="10" x1="0" y1="434.9" x2="915.2" y2="434.9"/>
<line fill="none" stroke="#010101" stroke-width="36.6093" stroke-miterlimit="10" x1="356.3" y1="447.2" x2="650.9" y2="660.3"/>
<line fill="none" stroke="#010101" stroke-width="36" stroke-miterlimit="10" x1="340.3" y1="448.2" x2="172.3" y2="629.3"/>
<path fill="none" stroke="#010101" stroke-width="33" stroke-miterlimit="10" d="M594.4,314.4c0,68.9-55.9,124.8-124.8,124.8
	c-98.3,0-124.8-82.5-124.8-124.8c0-68.9,55.9-124.8,124.8-124.8S594.4,245.5,594.4,314.4z"/>
<path fill="none" stroke="#010101" stroke-width="33" stroke-miterlimit="10" d="M338.3,363.5c0,33.4-33.6,75-75,75s-75-33.6-75-75
	s33.6-75,75-75S338.3,322,338.3,363.5z"/>
</svg>
