<?xml version="1.0" encoding="utf-8"?>
<!-- Generator: Adobe Illustrator 18.1.1, SVG Export Plug-In . SVG Version: 6.00 Build 0)  -->
<!DOCTYPE svg PUBLIC "-//W3C//DTD SVG 1.1//EN" "http://www.w3.org/Graphics/SVG/1.1/DTD/svg11.dtd">
<svg version="1.1" id="Layer_1" xmlns="http://www.w3.org/2000/svg" xmlns:xlink="http://www.w3.org/1999/xlink" x="0px" y="0px"
	 viewBox="0 0 916.2 870.7" enable-background="new 0 0 916.2 870.7" xml:space="preserve">
<path fill="#FAAE1B" stroke="#FAAE1B" stroke-miterlimit="10" d="M820.1,0.5H96C43.3,0.5,0.5,43.3,0.5,96v678.6
	c0,52.8,42.8,95.5,95.5,95.5h724.1c52.8,0,95.5-42.8,95.5-95.5V96C915.7,43.3,872.9,0.5,820.1,0.5z"/>
<path fill="#673090" stroke="#010101" stroke-width="6" stroke-miterlimit="10" d="M567.8,605.7"/>
<g>
	
		<line fill="#010101" stroke="#010101" stroke-width="37.8941" stroke-miterlimit="10" x1="431.6" y1="149.2" x2="431.6" y2="721.5"/>
	
		<line fill="#010101" stroke="#010101" stroke-width="43.7763" stroke-miterlimit="10" x1="416.6" y1="167.7" x2="500.4" y2="167.7"/>
	
		<line fill="#010101" stroke="#010101" stroke-width="43.7763" stroke-miterlimit="10" x1="415.7" y1="698.4" x2="499.5" y2="698.4"/>
	
		<line fill="#010101" stroke="#010101" stroke-width="37.8941" stroke-miterlimit="10" x1="485.7" y1="149.2" x2="485.7" y2="721.5"/>
</g>
<g>
	
		<line fill="#010101" stroke="#010101" stroke-width="38.2808" stroke-miterlimit="10" x1="750.1" y1="408.9" x2="166.1" y2="408.9"/>
	
		<line fill="#010101" stroke="#010101" stroke-width="38.2808" stroke-miterlimit="10" x1="731.2" y1="393.9" x2="731.2" y2="477.7"/>
	<line fill="#010101" stroke="#010101" stroke-width="38.2808" stroke-miterlimit="10" x1="189.7" y1="393" x2="189.7" y2="476.8"/>
	
		<line fill="#010101" stroke="#010101" stroke-width="38.2808" stroke-miterlimit="10" x1="750.1" y1="462.9" x2="166.1" y2="462.9"/>
</g>
<rect x="481.3" y="431" fill="#FAAE1B" stroke="#FAAE1B" stroke-width="10" stroke-miterlimit="10" width="10" height="10"/>
<rect x="426.6" y="430.9" fill="#FAAE1B" stroke="#FAAE1B" stroke-width="10" stroke-miterlimit="10" width="10" height="10"/>
<rect x="452.6" y="403.9" fill="#FAAE1B" stroke="#FAAE1B" stroke-width="10" stroke-miterlimit="10" width="10" height="10"/>
<rect x="452.6" y="457.9" fill="#FAAE1B" stroke="#FAAE1B" stroke-width="10" stroke-miterlimit="10" width="10" height="10"/>
</svg>
